<svg height="512pt" viewBox="0 0 512 512" width="512pt" xmlns="http://www.w3.org/2000/svg"><path d="m386.992188 208.613281-52.5-30.308593 52.5-30.3125-15-25.980469-97.5 56.292969 97.5 56.289062zm0 0"/><path d="m139.15625 234.59375 97.5-56.289062-97.5-56.292969-15 25.980469 52.5 30.3125-52.5 30.308593zm0 0"/><path d="m256 232.414062c-82.550781 0-149.710938 67.160157-149.710938 149.710938l.007813 21.304688 20.0625-7.1875c.632813-.226563 64.214844-22.742188 129.640625-22.742188s129.007812 22.515625 129.636719 22.738281l20.074219 7.21875v-21.332031c0-82.550781-67.160157-149.710938-149.710938-149.710938zm74.714844 56.253907h-149.429688c20.492188-16.417969 46.476563-26.253907 74.714844-26.253907s54.222656 9.835938 74.714844 26.253907zm-74.714844 54.832031c-47.097656 0-92.160156 10.402344-117.871094 17.660156 2.726563-15.371094 8.402344-29.734375 16.410156-42.496094h202.921876c8.007812 12.761719 13.683593 27.125 16.410156 42.496094-25.710938-7.257812-70.773438-17.660156-117.871094-17.660156zm0 0"/><path d="m437.019531 74.980469c-48.351562-48.351563-112.640625-74.980469-181.019531-74.980469s-132.667969 26.628906-181.019531 74.980469c-48.351563 48.351562-74.980469 112.640625-74.980469 181.019531s26.628906 132.667969 74.980469 181.019531c48.351562 48.351563 112.640625 74.980469 181.019531 74.980469s132.667969-26.628906 181.019531-74.980469c48.351563-48.351562 74.980469-112.640625 74.980469-181.019531s-26.628906-132.667969-74.980469-181.019531zm-181.019531 407.019531c-124.617188 0-226-101.382812-226-226s101.382812-226 226-226 226 101.382812 226 226-101.382812 226-226 226zm0 0"/></svg>